<svg width="3840" height="2160" viewBox="0 0 3840 2160" fill="none" xmlns="http://www.w3.org/2000/svg">
<rect width="3840" height="2160" fill="#606060"/>
<path d="M1835.68 985C1835.44 981.97 1834.3 979.606 1832.27 977.909C1830.27 976.212 1827.23 975.364 1823.14 975.364C1820.53 975.364 1818.39 975.682 1816.73 976.318C1815.09 976.924 1813.88 977.758 1813.09 978.818C1812.3 979.879 1811.89 981.091 1811.86 982.455C1811.8 983.576 1812 984.591 1812.45 985.5C1812.94 986.379 1813.7 987.182 1814.73 987.909C1815.76 988.606 1817.08 989.242 1818.68 989.818C1820.29 990.394 1822.2 990.909 1824.41 991.364L1832.05 993C1837.2 994.091 1841.61 995.53 1845.27 997.318C1848.94 999.106 1851.94 1001.21 1854.27 1003.64C1856.61 1006.03 1858.32 1008.73 1859.41 1011.73C1860.53 1014.73 1861.11 1018 1861.14 1021.55C1861.11 1027.67 1859.58 1032.85 1856.55 1037.09C1853.52 1041.33 1849.18 1044.56 1843.55 1046.77C1837.94 1048.98 1831.2 1050.09 1823.32 1050.09C1815.23 1050.09 1808.17 1048.89 1802.14 1046.5C1796.14 1044.11 1791.47 1040.42 1788.14 1035.45C1784.83 1030.45 1783.17 1024.06 1783.14 1016.27H1807.14C1807.29 1019.12 1808 1021.52 1809.27 1023.45C1810.55 1025.39 1812.33 1026.86 1814.64 1027.86C1816.97 1028.86 1819.74 1029.36 1822.95 1029.36C1825.65 1029.36 1827.91 1029.03 1829.73 1028.36C1831.55 1027.7 1832.92 1026.77 1833.86 1025.59C1834.8 1024.41 1835.29 1023.06 1835.32 1021.55C1835.29 1020.12 1834.82 1018.88 1833.91 1017.82C1833.03 1016.73 1831.58 1015.76 1829.55 1014.91C1827.52 1014.03 1824.77 1013.21 1821.32 1012.45L1812.05 1010.45C1803.8 1008.67 1797.3 1005.68 1792.55 1001.5C1787.82 997.288 1785.47 991.545 1785.5 984.273C1785.47 978.364 1787.05 973.197 1790.23 968.773C1793.44 964.318 1797.88 960.848 1803.55 958.364C1809.24 955.879 1815.77 954.636 1823.14 954.636C1830.65 954.636 1837.15 955.894 1842.64 958.409C1848.12 960.924 1852.35 964.47 1855.32 969.045C1858.32 973.591 1859.83 978.909 1859.86 985H1835.68ZM1896.2 955.909L1915.3 1021.55H1916.02L1935.11 955.909H1963.66L1932.93 1049H1898.39L1867.66 955.909H1896.2ZM2027.2 986.636C2026.81 985.03 2026.19 983.621 2025.34 982.409C2024.49 981.167 2023.43 980.121 2022.16 979.273C2020.92 978.394 2019.46 977.742 2017.8 977.318C2016.16 976.864 2014.36 976.636 2012.39 976.636C2008.14 976.636 2004.52 977.652 2001.52 979.682C1998.55 981.712 1996.28 984.636 1994.7 988.455C1993.16 992.273 1992.39 996.879 1992.39 1002.27C1992.39 1007.73 1993.13 1012.39 1994.61 1016.27C1996.1 1020.15 1998.31 1023.12 2001.25 1025.18C2004.19 1027.24 2007.84 1028.27 2012.2 1028.27C2016.05 1028.27 2019.25 1027.71 2021.8 1026.59C2024.37 1025.47 2026.3 1023.88 2027.57 1021.82C2028.84 1019.76 2029.48 1017.33 2029.48 1014.55L2033.84 1015H2012.57V997H2053.84V1009.91C2053.84 1018.39 2052.04 1025.65 2048.43 1031.68C2044.86 1037.68 2039.92 1042.29 2033.61 1045.5C2027.34 1048.68 2020.14 1050.27 2012.02 1050.27C2002.96 1050.27 1995.01 1048.35 1988.16 1044.5C1981.31 1040.65 1975.96 1035.17 1972.11 1028.05C1968.3 1020.92 1966.39 1012.45 1966.39 1002.64C1966.39 994.939 1967.55 988.121 1969.89 982.182C1972.25 976.242 1975.52 971.227 1979.7 967.136C1983.89 963.015 1988.72 959.909 1994.2 957.818C1999.69 955.697 2005.57 954.636 2011.84 954.636C2017.36 954.636 2022.48 955.424 2027.2 957C2031.96 958.545 2036.16 960.758 2039.8 963.636C2043.46 966.485 2046.42 969.864 2048.66 973.773C2050.9 977.682 2052.27 981.97 2052.75 986.636H2027.2Z" fill="black"/>
<path d="M1573.09 1205.27C1567.09 1205.27 1561.74 1204.24 1557.05 1202.18C1552.38 1200.12 1548.67 1197.26 1545.91 1193.59C1543.18 1189.89 1541.7 1185.61 1541.45 1180.73H1552.91C1553.15 1183.73 1554.18 1186.32 1556 1188.5C1557.82 1190.65 1560.2 1192.32 1563.14 1193.5C1566.08 1194.68 1569.33 1195.27 1572.91 1195.27C1576.91 1195.27 1580.45 1194.58 1583.55 1193.18C1586.64 1191.79 1589.06 1189.85 1590.82 1187.36C1592.58 1184.88 1593.45 1182 1593.45 1178.73C1593.45 1175.3 1592.61 1172.29 1590.91 1169.68C1589.21 1167.05 1586.73 1164.98 1583.45 1163.5C1580.18 1162.02 1576.18 1161.27 1571.45 1161.27H1564V1151.27H1571.45C1575.15 1151.27 1578.39 1150.61 1581.18 1149.27C1584 1147.94 1586.2 1146.06 1587.77 1143.64C1589.38 1141.21 1590.18 1138.36 1590.18 1135.09C1590.18 1131.94 1589.48 1129.2 1588.09 1126.86C1586.7 1124.53 1584.73 1122.71 1582.18 1121.41C1579.67 1120.11 1576.7 1119.45 1573.27 1119.45C1570.06 1119.45 1567.03 1120.05 1564.18 1121.23C1561.36 1122.38 1559.06 1124.06 1557.27 1126.27C1555.48 1128.45 1554.52 1131.09 1554.36 1134.18H1543.45C1543.64 1129.3 1545.11 1125.03 1547.86 1121.36C1550.62 1117.67 1554.23 1114.79 1558.68 1112.73C1563.17 1110.67 1568.09 1109.64 1573.45 1109.64C1579.21 1109.64 1584.15 1110.8 1588.27 1113.14C1592.39 1115.44 1595.56 1118.48 1597.77 1122.27C1599.98 1126.06 1601.09 1130.15 1601.09 1134.55C1601.09 1139.79 1599.71 1144.26 1596.95 1147.95C1594.23 1151.65 1590.52 1154.21 1585.82 1155.64V1156.36C1591.7 1157.33 1596.29 1159.83 1599.59 1163.86C1602.89 1167.86 1604.55 1172.82 1604.55 1178.73C1604.55 1183.79 1603.17 1188.33 1600.41 1192.36C1597.68 1196.36 1593.95 1199.52 1589.23 1201.82C1584.5 1204.12 1579.12 1205.27 1573.09 1205.27ZM1652.95 1205.27C1646.71 1205.27 1641.2 1204.17 1636.41 1201.95C1631.65 1199.71 1627.94 1196.64 1625.27 1192.73C1622.61 1188.79 1621.29 1184.3 1621.32 1179.27C1621.29 1175.33 1622.06 1171.7 1623.64 1168.36C1625.21 1165 1627.36 1162.2 1630.09 1159.95C1632.85 1157.68 1635.92 1156.24 1639.32 1155.64V1155.09C1634.86 1153.94 1631.32 1151.44 1628.68 1147.59C1626.05 1143.71 1624.74 1139.3 1624.77 1134.36C1624.74 1129.64 1625.94 1125.41 1628.36 1121.68C1630.79 1117.95 1634.12 1115.02 1638.36 1112.86C1642.64 1110.71 1647.5 1109.64 1652.95 1109.64C1658.35 1109.64 1663.17 1110.71 1667.41 1112.86C1671.65 1115.02 1674.98 1117.95 1677.41 1121.68C1679.86 1125.41 1681.11 1129.64 1681.14 1134.36C1681.11 1139.3 1679.76 1143.71 1677.09 1147.59C1674.45 1151.44 1670.95 1153.94 1666.59 1155.09V1155.64C1669.95 1156.24 1672.98 1157.68 1675.68 1159.95C1678.38 1162.2 1680.53 1165 1682.14 1168.36C1683.74 1171.7 1684.56 1175.33 1684.59 1179.27C1684.56 1184.3 1683.2 1188.79 1680.5 1192.73C1677.83 1196.64 1674.12 1199.71 1669.36 1201.95C1664.64 1204.17 1659.17 1205.27 1652.95 1205.27ZM1652.95 1195.27C1657.17 1195.27 1660.8 1194.59 1663.86 1193.23C1666.92 1191.86 1669.29 1189.94 1670.95 1187.45C1672.62 1184.97 1673.47 1182.06 1673.5 1178.73C1673.47 1175.21 1672.56 1172.11 1670.77 1169.41C1668.98 1166.71 1666.55 1164.59 1663.45 1163.05C1660.39 1161.5 1656.89 1160.73 1652.95 1160.73C1648.98 1160.73 1645.44 1161.5 1642.32 1163.05C1639.23 1164.59 1636.79 1166.71 1635 1169.41C1633.24 1172.11 1632.38 1175.21 1632.41 1178.73C1632.38 1182.06 1633.18 1184.97 1634.82 1187.45C1636.48 1189.94 1638.86 1191.86 1641.95 1193.23C1645.05 1194.59 1648.71 1195.27 1652.95 1195.27ZM1652.95 1151.09C1656.29 1151.09 1659.24 1150.42 1661.82 1149.09C1664.42 1147.76 1666.47 1145.89 1667.95 1143.5C1669.44 1141.11 1670.2 1138.3 1670.23 1135.09C1670.2 1131.94 1669.45 1129.2 1668 1126.86C1666.55 1124.5 1664.53 1122.68 1661.95 1121.41C1659.38 1120.11 1656.38 1119.45 1652.95 1119.45C1649.47 1119.45 1646.42 1120.11 1643.82 1121.41C1641.21 1122.68 1639.2 1124.5 1637.77 1126.86C1636.35 1129.2 1635.65 1131.94 1635.68 1135.09C1635.65 1138.3 1636.36 1141.11 1637.82 1143.5C1639.3 1145.89 1641.35 1147.76 1643.95 1149.09C1646.56 1150.42 1649.56 1151.09 1652.95 1151.09ZM1699.83 1184.91V1175.64L1740.74 1110.91H1747.47V1125.27H1742.92L1712.01 1174.18V1174.91H1767.1V1184.91H1699.83ZM1743.65 1204V1182.09V1177.77V1110.91H1754.38V1204H1743.65ZM1814.5 1205.27C1807.65 1205.27 1801.82 1203.41 1797 1199.68C1792.18 1195.92 1788.5 1190.48 1785.95 1183.36C1783.41 1176.21 1782.14 1167.58 1782.14 1157.45C1782.14 1147.39 1783.41 1138.8 1785.95 1131.68C1788.53 1124.53 1792.23 1119.08 1797.05 1115.32C1801.89 1111.53 1807.71 1109.64 1814.5 1109.64C1821.29 1109.64 1827.09 1111.53 1831.91 1115.32C1836.76 1119.08 1840.45 1124.53 1843 1131.68C1845.58 1138.8 1846.86 1147.39 1846.86 1157.45C1846.86 1167.58 1845.59 1176.21 1843.05 1183.36C1840.5 1190.48 1836.82 1195.92 1832 1199.68C1827.18 1203.41 1821.35 1205.27 1814.5 1205.27ZM1814.5 1195.27C1821.29 1195.27 1826.56 1192 1830.32 1185.45C1834.08 1178.91 1835.95 1169.58 1835.95 1157.45C1835.95 1149.39 1835.09 1142.53 1833.36 1136.86C1831.67 1131.2 1829.21 1126.88 1826 1123.91C1822.82 1120.94 1818.98 1119.45 1814.5 1119.45C1807.77 1119.45 1802.52 1122.77 1798.73 1129.41C1794.94 1136.02 1793.05 1145.36 1793.05 1157.45C1793.05 1165.52 1793.89 1172.36 1795.59 1178C1797.29 1183.64 1799.73 1187.92 1802.91 1190.86C1806.12 1193.8 1809.98 1195.27 1814.5 1195.27ZM1954.86 1187.27L1903.59 1136L1910.5 1129.09L1961.77 1180.36L1954.86 1187.27ZM1910.5 1187.27L1903.59 1180.36L1954.86 1129.09L1961.77 1136L1910.5 1187.27ZM2020.51 1204V1195.82L2051.24 1162.18C2054.84 1158.24 2057.81 1154.82 2060.15 1151.91C2062.48 1148.97 2064.21 1146.21 2065.33 1143.64C2066.48 1141.03 2067.06 1138.3 2067.06 1135.45C2067.06 1132.18 2066.27 1129.35 2064.69 1126.95C2063.15 1124.56 2061.03 1122.71 2058.33 1121.41C2055.63 1120.11 2052.6 1119.45 2049.24 1119.45C2045.66 1119.45 2042.54 1120.2 2039.88 1121.68C2037.24 1123.14 2035.19 1125.18 2033.74 1127.82C2032.31 1130.45 2031.6 1133.55 2031.6 1137.09H2020.88C2020.88 1131.64 2022.13 1126.85 2024.65 1122.73C2027.16 1118.61 2030.59 1115.39 2034.92 1113.09C2039.28 1110.79 2044.18 1109.64 2049.6 1109.64C2055.06 1109.64 2059.89 1110.79 2064.1 1113.09C2068.31 1115.39 2071.62 1118.5 2074.01 1122.41C2076.41 1126.32 2077.6 1130.67 2077.6 1135.45C2077.6 1138.88 2076.98 1142.23 2075.74 1145.5C2074.53 1148.74 2072.41 1152.36 2069.38 1156.36C2066.38 1160.33 2062.21 1165.18 2056.88 1170.91L2035.97 1193.27V1194H2079.24V1204H2020.51ZM2130.74 1110.91V1204H2119.47V1122.73H2118.92L2096.19 1137.82V1126.36L2119.47 1110.91H2130.74ZM2188.42 1205.27C2184.6 1205.21 2180.78 1204.48 2176.97 1203.09C2173.15 1201.7 2169.66 1199.35 2166.51 1196.05C2163.36 1192.71 2160.83 1188.21 2158.92 1182.55C2157.01 1176.85 2156.06 1169.7 2156.06 1161.09C2156.06 1152.85 2156.83 1145.55 2158.38 1139.18C2159.92 1132.79 2162.16 1127.41 2165.1 1123.05C2168.04 1118.65 2171.59 1115.32 2175.74 1113.05C2179.92 1110.77 2184.63 1109.64 2189.88 1109.64C2195.09 1109.64 2199.72 1110.68 2203.78 1112.77C2207.88 1114.83 2211.21 1117.71 2213.78 1121.41C2216.36 1125.11 2218.03 1129.36 2218.78 1134.18H2207.69C2206.66 1130 2204.66 1126.53 2201.69 1123.77C2198.72 1121.02 2194.78 1119.64 2189.88 1119.64C2182.66 1119.64 2176.98 1122.77 2172.83 1129.05C2168.71 1135.32 2166.63 1144.12 2166.6 1155.45H2167.33C2169.03 1152.88 2171.04 1150.68 2173.38 1148.86C2175.74 1147.02 2178.34 1145.59 2181.19 1144.59C2184.04 1143.59 2187.06 1143.09 2190.24 1143.09C2195.57 1143.09 2200.45 1144.42 2204.88 1147.09C2209.3 1149.73 2212.84 1153.38 2215.51 1158.05C2218.18 1162.68 2219.51 1168 2219.51 1174C2219.51 1179.76 2218.22 1185.03 2215.65 1189.82C2213.07 1194.58 2209.45 1198.36 2204.78 1201.18C2200.15 1203.97 2194.69 1205.33 2188.42 1205.27ZM2188.42 1195.27C2192.24 1195.27 2195.66 1194.32 2198.69 1192.41C2201.75 1190.5 2204.16 1187.94 2205.92 1184.73C2207.71 1181.52 2208.6 1177.94 2208.6 1174C2208.6 1170.15 2207.74 1166.65 2206.01 1163.5C2204.31 1160.32 2201.97 1157.79 2198.97 1155.91C2196 1154.03 2192.6 1153.09 2188.78 1153.09C2185.91 1153.09 2183.22 1153.67 2180.74 1154.82C2178.25 1155.94 2176.07 1157.48 2174.19 1159.45C2172.34 1161.42 2170.89 1163.68 2169.83 1166.23C2168.77 1168.74 2168.24 1171.39 2168.24 1174.18C2168.24 1177.88 2169.1 1181.33 2170.83 1184.55C2172.59 1187.76 2174.98 1190.35 2178.01 1192.32C2181.07 1194.29 2184.54 1195.27 2188.42 1195.27ZM2267.75 1205.27C2260.9 1205.27 2255.07 1203.41 2250.25 1199.68C2245.43 1195.92 2241.75 1190.48 2239.2 1183.36C2236.66 1176.21 2235.39 1167.58 2235.39 1157.45C2235.39 1147.39 2236.66 1138.8 2239.2 1131.68C2241.78 1124.53 2245.48 1119.08 2250.3 1115.32C2255.14 1111.53 2260.96 1109.64 2267.75 1109.64C2274.54 1109.64 2280.34 1111.53 2285.16 1115.32C2290.01 1119.08 2293.7 1124.53 2296.25 1131.68C2298.83 1138.8 2300.11 1147.39 2300.11 1157.45C2300.11 1167.58 2298.84 1176.21 2296.3 1183.36C2293.75 1190.48 2290.07 1195.92 2285.25 1199.68C2280.43 1203.41 2274.6 1205.27 2267.75 1205.27ZM2267.75 1195.27C2274.54 1195.27 2279.81 1192 2283.57 1185.45C2287.33 1178.91 2289.2 1169.58 2289.2 1157.45C2289.2 1149.39 2288.34 1142.53 2286.61 1136.86C2284.92 1131.2 2282.46 1126.88 2279.25 1123.91C2276.07 1120.94 2272.23 1119.45 2267.75 1119.45C2261.02 1119.45 2255.77 1122.77 2251.98 1129.41C2248.19 1136.02 2246.3 1145.36 2246.3 1157.45C2246.3 1165.52 2247.14 1172.36 2248.84 1178C2250.54 1183.64 2252.98 1187.92 2256.16 1190.86C2259.37 1193.8 2263.23 1195.27 2267.75 1195.27Z" fill="white"/>
</svg>
