<svg width="600" height="600" viewBox="0 0 600 600" fill="none" xmlns="http://www.w3.org/2000/svg">
<rect width="600" height="600" fill="#606060"/>
<path d="M258.091 253C257.97 251.485 257.402 250.303 256.386 249.455C255.386 248.606 253.864 248.182 251.818 248.182C250.515 248.182 249.447 248.341 248.614 248.659C247.795 248.962 247.189 249.379 246.795 249.909C246.402 250.439 246.197 251.045 246.182 251.727C246.152 252.288 246.25 252.795 246.477 253.25C246.72 253.689 247.098 254.091 247.614 254.455C248.129 254.803 248.788 255.121 249.591 255.409C250.394 255.697 251.348 255.955 252.455 256.182L256.273 257C258.848 257.545 261.053 258.265 262.886 259.159C264.72 260.053 266.22 261.106 267.386 262.318C268.553 263.515 269.409 264.864 269.955 266.364C270.515 267.864 270.803 269.5 270.818 271.273C270.803 274.333 270.038 276.924 268.523 279.045C267.008 281.167 264.841 282.78 262.023 283.886C259.22 284.992 255.848 285.545 251.909 285.545C247.864 285.545 244.333 284.947 241.318 283.75C238.318 282.553 235.985 280.712 234.318 278.227C232.667 275.727 231.833 272.53 231.818 268.636H243.818C243.894 270.061 244.25 271.258 244.886 272.227C245.523 273.197 246.417 273.932 247.568 274.432C248.735 274.932 250.121 275.182 251.727 275.182C253.076 275.182 254.205 275.015 255.114 274.682C256.023 274.348 256.712 273.886 257.182 273.295C257.652 272.705 257.894 272.03 257.909 271.273C257.894 270.561 257.659 269.939 257.205 269.409C256.765 268.864 256.038 268.379 255.023 267.955C254.008 267.515 252.636 267.106 250.909 266.727L246.273 265.727C242.152 264.833 238.902 263.341 236.523 261.25C234.159 259.144 232.985 256.273 233 252.636C232.985 249.682 233.773 247.098 235.364 244.886C236.97 242.659 239.189 240.924 242.023 239.682C244.871 238.439 248.136 237.818 251.818 237.818C255.576 237.818 258.826 238.447 261.568 239.705C264.311 240.962 266.424 242.735 267.909 245.023C269.409 247.295 270.167 249.955 270.182 253H258.091ZM288.352 238.455L297.898 271.273H298.261L307.807 238.455H322.08L306.716 285H289.443L274.08 238.455H288.352ZM353.852 253.818C353.655 253.015 353.345 252.311 352.92 251.705C352.496 251.083 351.966 250.561 351.33 250.136C350.708 249.697 349.981 249.371 349.148 249.159C348.33 248.932 347.428 248.818 346.443 248.818C344.322 248.818 342.511 249.326 341.011 250.341C339.527 251.356 338.39 252.818 337.602 254.727C336.83 256.636 336.443 258.939 336.443 261.636C336.443 264.364 336.814 266.697 337.557 268.636C338.299 270.576 339.405 272.061 340.875 273.091C342.345 274.121 344.17 274.636 346.352 274.636C348.277 274.636 349.875 274.356 351.148 273.795C352.436 273.235 353.398 272.439 354.034 271.409C354.67 270.379 354.989 269.167 354.989 267.773L357.17 268H346.534V259H367.17V265.455C367.17 269.697 366.269 273.326 364.466 276.341C362.678 279.341 360.208 281.644 357.057 283.25C353.92 284.841 350.322 285.636 346.261 285.636C341.731 285.636 337.754 284.674 334.33 282.75C330.905 280.826 328.231 278.083 326.307 274.523C324.398 270.962 323.443 266.727 323.443 261.818C323.443 257.97 324.027 254.561 325.193 251.591C326.375 248.621 328.011 246.114 330.102 244.068C332.193 242.008 334.61 240.455 337.352 239.409C340.095 238.348 343.034 237.818 346.17 237.818C348.928 237.818 351.489 238.212 353.852 239C356.231 239.773 358.33 240.879 360.148 242.318C361.981 243.742 363.458 245.432 364.58 247.386C365.701 249.341 366.383 251.485 366.625 253.818H353.852Z" fill="black"/>
<path d="M161.273 362.636C159.364 362.606 157.455 362.242 155.545 361.545C153.636 360.848 151.894 359.674 150.318 358.023C148.742 356.356 147.477 354.106 146.523 351.273C145.568 348.424 145.091 344.848 145.091 340.545C145.091 336.424 145.477 332.773 146.25 329.591C147.023 326.394 148.144 323.705 149.614 321.523C151.083 319.326 152.856 317.659 154.932 316.523C157.023 315.386 159.379 314.818 162 314.818C164.606 314.818 166.924 315.341 168.955 316.386C171 317.417 172.667 318.856 173.955 320.705C175.242 322.553 176.076 324.682 176.455 327.091H170.909C170.394 325 169.394 323.265 167.909 321.886C166.424 320.508 164.455 319.818 162 319.818C158.394 319.818 155.553 321.386 153.477 324.523C151.417 327.659 150.379 332.061 150.364 337.727H150.727C151.576 336.439 152.583 335.341 153.75 334.432C154.932 333.508 156.235 332.795 157.659 332.295C159.083 331.795 160.591 331.545 162.182 331.545C164.848 331.545 167.288 332.212 169.5 333.545C171.712 334.864 173.485 336.689 174.818 339.023C176.152 341.341 176.818 344 176.818 347C176.818 349.879 176.174 352.515 174.886 354.909C173.598 357.288 171.788 359.182 169.455 360.591C167.136 361.985 164.409 362.667 161.273 362.636ZM161.273 357.636C163.182 357.636 164.894 357.159 166.409 356.205C167.939 355.25 169.144 353.97 170.023 352.364C170.917 350.758 171.364 348.97 171.364 347C171.364 345.076 170.932 343.326 170.068 341.75C169.22 340.159 168.045 338.894 166.545 337.955C165.061 337.015 163.364 336.545 161.455 336.545C160.015 336.545 158.674 336.833 157.432 337.409C156.189 337.97 155.098 338.742 154.159 339.727C153.235 340.712 152.508 341.841 151.977 343.114C151.447 344.371 151.182 345.697 151.182 347.091C151.182 348.939 151.614 350.667 152.477 352.273C153.356 353.879 154.553 355.174 156.068 356.159C157.598 357.144 159.333 357.636 161.273 357.636ZM200.938 362.636C197.513 362.636 194.597 361.705 192.188 359.841C189.778 357.962 187.938 355.242 186.665 351.682C185.392 348.106 184.756 343.788 184.756 338.727C184.756 333.697 185.392 329.402 186.665 325.841C187.953 322.265 189.801 319.538 192.21 317.659C194.634 315.765 197.544 314.818 200.938 314.818C204.331 314.818 207.233 315.765 209.642 317.659C212.066 319.538 213.915 322.265 215.188 325.841C216.475 329.402 217.119 333.697 217.119 338.727C217.119 343.788 216.483 348.106 215.21 351.682C213.938 355.242 212.097 357.962 209.688 359.841C207.278 361.705 204.362 362.636 200.938 362.636ZM200.938 357.636C204.331 357.636 206.968 356 208.847 352.727C210.725 349.455 211.665 344.788 211.665 338.727C211.665 334.697 211.233 331.265 210.369 328.432C209.521 325.598 208.294 323.439 206.688 321.955C205.097 320.47 203.18 319.727 200.938 319.727C197.574 319.727 194.945 321.386 193.051 324.705C191.157 328.008 190.21 332.682 190.21 338.727C190.21 342.758 190.634 346.182 191.483 349C192.331 351.818 193.551 353.962 195.142 355.432C196.748 356.902 198.68 357.636 200.938 357.636ZM240.938 362.636C237.513 362.636 234.597 361.705 232.188 359.841C229.778 357.962 227.938 355.242 226.665 351.682C225.392 348.106 224.756 343.788 224.756 338.727C224.756 333.697 225.392 329.402 226.665 325.841C227.953 322.265 229.801 319.538 232.21 317.659C234.634 315.765 237.544 314.818 240.938 314.818C244.331 314.818 247.233 315.765 249.642 317.659C252.066 319.538 253.915 322.265 255.188 325.841C256.475 329.402 257.119 333.697 257.119 338.727C257.119 343.788 256.483 348.106 255.21 351.682C253.938 355.242 252.097 357.962 249.688 359.841C247.278 361.705 244.362 362.636 240.938 362.636ZM240.938 357.636C244.331 357.636 246.968 356 248.847 352.727C250.725 349.455 251.665 344.788 251.665 338.727C251.665 334.697 251.233 331.265 250.369 328.432C249.521 325.598 248.294 323.439 246.688 321.955C245.097 320.47 243.18 319.727 240.938 319.727C237.574 319.727 234.945 321.386 233.051 324.705C231.157 328.008 230.21 332.682 230.21 338.727C230.21 342.758 230.634 346.182 231.483 349C232.331 351.818 233.551 353.962 235.142 355.432C236.748 356.902 238.68 357.636 240.938 357.636ZM311.119 353.636L285.483 328L288.938 324.545L314.574 350.182L311.119 353.636ZM288.938 353.636L285.483 350.182L311.119 324.545L314.574 328L288.938 353.636ZM359.398 362.636C357.489 362.606 355.58 362.242 353.67 361.545C351.761 360.848 350.019 359.674 348.443 358.023C346.867 356.356 345.602 354.106 344.648 351.273C343.693 348.424 343.216 344.848 343.216 340.545C343.216 336.424 343.602 332.773 344.375 329.591C345.148 326.394 346.269 323.705 347.739 321.523C349.208 319.326 350.981 317.659 353.057 316.523C355.148 315.386 357.504 314.818 360.125 314.818C362.731 314.818 365.049 315.341 367.08 316.386C369.125 317.417 370.792 318.856 372.08 320.705C373.367 322.553 374.201 324.682 374.58 327.091H369.034C368.519 325 367.519 323.265 366.034 321.886C364.549 320.508 362.58 319.818 360.125 319.818C356.519 319.818 353.678 321.386 351.602 324.523C349.542 327.659 348.504 332.061 348.489 337.727H348.852C349.701 336.439 350.708 335.341 351.875 334.432C353.057 333.508 354.36 332.795 355.784 332.295C357.208 331.795 358.716 331.545 360.307 331.545C362.973 331.545 365.413 332.212 367.625 333.545C369.837 334.864 371.61 336.689 372.943 339.023C374.277 341.341 374.943 344 374.943 347C374.943 349.879 374.299 352.515 373.011 354.909C371.723 357.288 369.913 359.182 367.58 360.591C365.261 361.985 362.534 362.667 359.398 362.636ZM359.398 357.636C361.307 357.636 363.019 357.159 364.534 356.205C366.064 355.25 367.269 353.97 368.148 352.364C369.042 350.758 369.489 348.97 369.489 347C369.489 345.076 369.057 343.326 368.193 341.75C367.345 340.159 366.17 338.894 364.67 337.955C363.186 337.015 361.489 336.545 359.58 336.545C358.14 336.545 356.799 336.833 355.557 337.409C354.314 337.97 353.223 338.742 352.284 339.727C351.36 340.712 350.633 341.841 350.102 343.114C349.572 344.371 349.307 345.697 349.307 347.091C349.307 348.939 349.739 350.667 350.602 352.273C351.481 353.879 352.678 355.174 354.193 356.159C355.723 357.144 357.458 357.636 359.398 357.636ZM399.062 362.636C395.638 362.636 392.722 361.705 390.312 359.841C387.903 357.962 386.063 355.242 384.79 351.682C383.517 348.106 382.881 343.788 382.881 338.727C382.881 333.697 383.517 329.402 384.79 325.841C386.078 322.265 387.926 319.538 390.335 317.659C392.759 315.765 395.669 314.818 399.062 314.818C402.456 314.818 405.358 315.765 407.767 317.659C410.191 319.538 412.04 322.265 413.312 325.841C414.6 329.402 415.244 333.697 415.244 338.727C415.244 343.788 414.608 348.106 413.335 351.682C412.062 355.242 410.222 357.962 407.812 359.841C405.403 361.705 402.487 362.636 399.062 362.636ZM399.062 357.636C402.456 357.636 405.093 356 406.972 352.727C408.85 349.455 409.79 344.788 409.79 338.727C409.79 334.697 409.358 331.265 408.494 328.432C407.646 325.598 406.419 323.439 404.812 321.955C403.222 320.47 401.305 319.727 399.062 319.727C395.699 319.727 393.07 321.386 391.176 324.705C389.282 328.008 388.335 332.682 388.335 338.727C388.335 342.758 388.759 346.182 389.608 349C390.456 351.818 391.676 353.962 393.267 355.432C394.873 356.902 396.805 357.636 399.062 357.636ZM439.062 362.636C435.638 362.636 432.722 361.705 430.312 359.841C427.903 357.962 426.063 355.242 424.79 351.682C423.517 348.106 422.881 343.788 422.881 338.727C422.881 333.697 423.517 329.402 424.79 325.841C426.078 322.265 427.926 319.538 430.335 317.659C432.759 315.765 435.669 314.818 439.062 314.818C442.456 314.818 445.358 315.765 447.767 317.659C450.191 319.538 452.04 322.265 453.312 325.841C454.6 329.402 455.244 333.697 455.244 338.727C455.244 343.788 454.608 348.106 453.335 351.682C452.062 355.242 450.222 357.962 447.812 359.841C445.403 361.705 442.487 362.636 439.062 362.636ZM439.062 357.636C442.456 357.636 445.093 356 446.972 352.727C448.85 349.455 449.79 344.788 449.79 338.727C449.79 334.697 449.358 331.265 448.494 328.432C447.646 325.598 446.419 323.439 444.812 321.955C443.222 320.47 441.305 319.727 439.062 319.727C435.699 319.727 433.07 321.386 431.176 324.705C429.282 328.008 428.335 332.682 428.335 338.727C428.335 342.758 428.759 346.182 429.608 349C430.456 351.818 431.676 353.962 433.267 355.432C434.873 356.902 436.805 357.636 439.062 357.636Z" fill="white"/>
</svg>
